<svg xmlns="http://www.w3.org/2000/svg" viewBox="-3535 3526 16.255 30.103">
  <defs>
    <style>
      .cls-1 {
        fill: #6a6a6a;
      }
    </style>
  </defs>
  <g id="icon-fb" transform="translate(-3535 3526)">
    <path id="Path_3" data-name="Path 3" class="cls-1" d="M15.63,0H11.722C7.346,0,4.5,2.907,4.5,7.409v3.407H.625A.627.627,0,0,0,0,11.441V16.38a.627.627,0,0,0,.625.625H4.533V29.478a.627.627,0,0,0,.625.625h5.127a.627.627,0,0,0,.625-.625v-12.5h4.6a.627.627,0,0,0,.625-.625V11.41a.641.641,0,0,0-.625-.625H10.878V7.909c0-1.375.344-2.094,2.126-2.094H15.63a.627.627,0,0,0,.625-.625V.625A.627.627,0,0,0,15.63,0Z"/>
  </g>
</svg>
