<svg xmlns="http://www.w3.org/2000/svg" viewBox="-3452 3529 31 25.103">
  <defs>
    <style>
      .cls-1 {
        fill: #6a6a6a;
      }
    </style>
  </defs>
  <path id="icon-twitter" class="cls-1" d="M27.8,6.234v.842C27.8,15.5,21.4,25.1,9.772,25.1A17.93,17.93,0,0,1,0,22.239c.505,0,1.011.168,1.516.168a12.84,12.84,0,0,0,7.918-2.7,6.167,6.167,0,0,1-5.9-4.38c.337,0,.842.168,1.179.168A5.731,5.731,0,0,0,6.4,15.332,6.34,6.34,0,0,1,1.348,9.1h0a5.68,5.68,0,0,0,2.864.842A6.392,6.392,0,0,1,1.348,4.717a6.969,6.969,0,0,1,.842-3.2A18.129,18.129,0,0,0,15.332,7.75,3.284,3.284,0,0,1,15.163,6.4,6.366,6.366,0,0,1,21.4,0a6.757,6.757,0,0,1,4.717,2.022A14.394,14.394,0,0,0,30.158.505a6.6,6.6,0,0,1-2.864,3.538A13.385,13.385,0,0,0,31,3.033,11.576,11.576,0,0,1,27.8,6.234Z" transform="translate(-3452 3529)"/>
</svg>
