<svg xmlns="http://www.w3.org/2000/svg" viewBox="1126 224 45.032 46"><defs><style>.a{fill:#f8f5f5;}</style></defs><path class="a" d="M25.905,23l18.4-18.884a2.34,2.34,0,0,0,0-3.389,2.34,2.34,0,0,0-3.389,0l-18.4,18.884L4.116.726a2.34,2.34,0,0,0-3.389,0,2.34,2.34,0,0,0,0,3.389L19.126,23,.726,41.884a2.34,2.34,0,0,0,0,3.389A2.2,2.2,0,0,0,2.421,46a2.2,2.2,0,0,0,1.695-.726l18.4-18.884,18.4,18.884A2.615,2.615,0,0,0,42.611,46a2.2,2.2,0,0,0,1.695-.726,2.34,2.34,0,0,0,0-3.389Z" transform="translate(1126 224)"/></svg>