<svg xmlns="http://www.w3.org/2000/svg" viewBox="-3361 3527 28.103 28.103">
  <defs>
    <style>
      .cls-1 {
        fill: #6a6a6a;
      }
    </style>
  </defs>
  <path id="icon-instagram" class="cls-1" d="M24.981,0H3.123A3.132,3.132,0,0,0,0,3.123V24.981A3.132,3.132,0,0,0,3.123,28.1H24.981A3.132,3.132,0,0,0,28.1,24.981V3.123A3.132,3.132,0,0,0,24.981,0ZM14.052,22.639a8.562,8.562,0,0,0,8.587-8.587,5.311,5.311,0,0,0-.156-1.561h2.5V23.732a1.067,1.067,0,0,1-1.093,1.093H4.215a1.067,1.067,0,0,1-1.093-1.093V12.49H5.465c0,.468-.156.937-.156,1.561A8.7,8.7,0,0,0,14.052,22.639ZM8.587,14.052a5.532,5.532,0,0,1,5.465-5.465,5.465,5.465,0,1,1,0,10.929A5.639,5.639,0,0,1,8.587,14.052Zm15.3-6.245h-2.5A1.067,1.067,0,0,1,20.3,6.714v-2.5A1.067,1.067,0,0,1,21.39,3.123h2.5a1.067,1.067,0,0,1,1.093,1.093v2.5A1.067,1.067,0,0,1,23.888,7.806Z" transform="translate(-3361 3527)"/>
</svg>
